HIERARCHY
ROOT Hips
{
     OFFSET -13.76600 97.16430 46.19240
     CHANNELS 6 Xposition Yposition Zposition Zrotation Xrotation Yrotation
     JOINT Spine
     {
          OFFSET -0.00000 11.89050 -0.00000
          CHANNELS 3 Zrotation Xrotation Yrotation
          JOINT Spine1
          {
               OFFSET -0.00000 25.65740 0.12766
               CHANNELS 3 Zrotation Xrotation Yrotation
               JOINT HEad
               {
                    OFFSET -0.00000 8.73416 0.01134
                    CHANNELS 3 Zrotation Xrotation Yrotation
                    End Site
                    {
                         OFFSET -0.29000 12.77420 2.51395
                    }
               }
               JOINT LeftShoulder1
               {
                    OFFSET 8.99000 -0.36225 -0.22000
                    CHANNELS 3 Zrotation Xrotation Yrotation
                    JOINT LeftArm
                    {
                         OFFSET 10.28270 -0.00338 0.32212
                         CHANNELS 3 Zrotation Xrotation Yrotation
                         JOINT LeftForeArm
                         {
                              OFFSET 32.76690 0.09914 -1.42434
                              CHANNELS 3 Zrotation Xrotation Yrotation
                              JOINT LeftHand
                              {
                                   OFFSET 27.56430 0.08536 1.02216
                                   CHANNELS 3 Zrotation Xrotation Yrotation
                                   End Site
                                   {
                                        OFFSET 16.74430 -0.60000 1.50291
                                   }
                              }
                         }
                    }
               }
               JOINT RightShoulder
               {
                    OFFSET -8.99000 -0.36225 -0.22000
                    CHANNELS 3 Zrotation Xrotation Yrotation
                    JOINT RightArm
                    {
                         OFFSET -10.28270 -0.00338 0.32212
                         CHANNELS 3 Zrotation Xrotation Yrotation
                         JOINT RightForeArm
                         {
                              OFFSET -32.89710 0.09914 -1.42434
                              CHANNELS 3 Zrotation Xrotation Yrotation
                              JOINT RightHand
                              {
                                   OFFSET -27.49210 0.08536 1.02216
                                   CHANNELS 3 Zrotation Xrotation Yrotation
                                   End Site
                                   {
                                        OFFSET -16.63120 -0.60000 1.50291
                                   }
                              }
                         }
                    }
               }
          }
     }
     JOINT LeftUpLeg
     {
          OFFSET 8.94580 -8.66707 0.10165
          CHANNELS 3 Zrotation Xrotation Yrotation
          JOINT LeftLeg
          {
               OFFSET -0.00000 -44.42270 1.37270
               CHANNELS 3 Zrotation Xrotation Yrotation
               JOINT LeftFoot
               {
                    OFFSET -0.25355 -42.09240 -1.46059
                    CHANNELS 3 Zrotation Xrotation Yrotation
                    JOINT LeftToes
                    {
                         OFFSET -0.04000 -4.41509 8.49910
                         CHANNELS 3 Zrotation Xrotation Yrotation
                         End Site
                         {
                              OFFSET 0.08000 -0.04745 9.77979
                         }
                    }
               }
          }
     }
     JOINT RightUpLeg
     {
          OFFSET -8.94580 -8.66707 0.10165
          CHANNELS 3 Zrotation Xrotation Yrotation
          JOINT RightLeg
          {
               OFFSET 0.00000 -44.42270 1.37270
               CHANNELS 3 Zrotation Xrotation Yrotation
               JOINT RightFoot
               {
                    OFFSET 0.25355 -42.09240 -1.46059
                    CHANNELS 3 Zrotation Xrotation Yrotation
                    JOINT RightToes
                    {
                         OFFSET 0.04000 -4.41509 8.49910
                         CHANNELS 3 Zrotation Xrotation Yrotation
                         End Site
                         {
                              OFFSET -0.08000 -0.13745 9.77979
                         }
                    }
               }
          }
     }
}
MOTION
Frames: 6
Frame Time: 0.01667
38.90530 94.28380 22.46720 -7.68392 3.15555 -75.93010 5.55094 5.18362 -0.52820 16.37300 9.95380 -2.59813 0.34698 -3.95704 21.64560 -0.00000 -0.00000 0.00000 -133.16400 -61.33350 -111.53500 -4.20475 52.94670 -122.17600 31.39440 5.48359 -11.81540 3.31306 0.73242 6.37288 69.72610 8.28039 75.70670 4.28846 30.38470 96.49570 -18.73030 11.08180 -11.89650 22.52430 -13.70780 -23.48830 -21.64350 32.35890 47.54780 -32.69070 -2.70871 1.45467 6.52718 -18.06750 -65.23810 -13.41710 0.68069 -22.76790 -7.07242 18.96020 8.46324 26.91900 -9.40201 0.23772 0.45031 -14.01980 35.39100 
40.00510 94.07840 22.87490 -7.32571 4.06825 -76.01630 5.27975 5.28504 -0.71575 15.85020 10.17970 -2.90388 1.23251 -4.84989 22.57590 -0.00000 -0.00000 0.00000 -133.00400 -58.82860 -109.44600 -2.68325 52.44880 -123.59800 31.91200 5.56169 -11.26250 2.68900 0.66416 6.02417 70.74410 8.42046 77.43220 3.94450 30.67510 97.28080 -18.69150 11.11530 -12.12830 22.58140 -13.30990 -23.34610 -19.81750 30.56700 46.75110 -31.50730 -5.00943 0.76460 6.51451 -18.03630 -64.65940 -12.98120 -0.45772 -23.42720 -7.16628 18.68160 8.96824 27.36320 -9.02180 0.15385 0.36723 -13.80450 35.13090 
41.21770 93.99720 23.13260 -6.94392 4.66761 -76.14860 4.69221 5.52077 -0.81604 15.10890 10.67560 -3.08932 2.13903 -5.99643 23.29140 -0.00000 -0.00000 0.00000 -133.33400 -56.36470 -108.11200 -1.92633 52.36500 -124.34000 32.46630 5.56211 -10.97840 2.20238 0.60149 5.55973 71.87560 8.65804 79.21420 3.43906 30.98500 98.21160 -18.74080 11.15190 -12.34030 22.31550 -13.90480 -22.93430 -18.39610 30.11420 46.78570 -30.64530 -5.61389 0.58077 6.37319 -18.41970 -64.76290 -12.57350 -1.60101 -24.04670 -7.58543 18.14890 9.47492 27.73970 -8.54808 0.04361 0.24879 -13.50860 34.99060 
42.50090 94.01510 23.28440 -6.61107 4.94789 -76.40520 3.90696 5.91372 -0.83357 14.09540 11.50240 -3.12540 2.99814 -7.40947 23.77460 -0.00000 -0.00000 0.00000 -134.38699 -54.14880 -107.93500 -1.76996 52.77470 -124.53700 32.97470 5.51110 -10.90140 1.74122 0.55286 5.23948 73.31690 8.89454 80.84510 3.01838 31.38740 99.08270 -18.98110 11.18040 -12.41380 21.82320 -14.99190 -22.51960 -17.33180 30.41880 47.49420 -30.37740 -4.63546 0.83581 6.12437 -19.14730 -65.68650 -12.24480 -2.65804 -24.77770 -8.29728 17.33710 10.14950 27.97660 -8.01895 -0.08391 0.11289 -13.17010 34.88370 
43.76040 94.09710 23.40990 -6.34893 5.00779 -76.88420 3.03462 6.41455 -0.73159 12.85470 12.57240 -2.91596 3.67470 -8.98278 23.95420 -0.00000 -0.00000 0.00000 -136.05600 -52.32330 -108.86300 -1.88371 53.54120 -124.42200 33.34580 5.45918 -10.89580 1.11294 0.51216 5.20255 75.20150 9.05517 82.10770 3.01175 31.96910 99.62420 -19.46580 11.19280 -12.27730 21.29240 -15.99030 -22.11490 -16.57000 30.78310 48.33860 -30.42380 -3.12439 1.23867 5.91113 -19.75350 -66.68460 -12.01090 -3.54212 -25.70390 -9.10968 16.19810 11.02700 28.07740 -7.44768 -0.22372 -0.04481 -12.77100 34.72040 
44.90520 94.22280 23.56080 -6.08062 5.02798 -77.61010 2.13740 6.90219 -0.47217 11.53470 13.64280 -2.37176 3.99381 -10.48570 23.76050 -0.00000 -0.00000 0.00000 -137.90700 -50.90770 -110.38600 -1.93068 54.37750 -124.19200 33.53200 5.44408 -10.85620 0.21060 0.46656 5.41567 77.44190 9.12637 82.90160 3.61261 32.75750 99.59560 -20.13820 11.18490 -11.95070 20.95460 -16.66280 -21.53630 -16.07960 30.82300 48.75580 -30.38430 -2.07413 1.51509 5.84507 -19.93180 -66.94580 -11.81640 -4.24607 -26.77770 -9.74073 14.71640 11.89790 28.16870 -6.81825 -0.37864 -0.26686 -12.20610 34.53000 
